<svg xmlns="http://www.w3.org/2000/svg" xmlns:xlink="http://www.w3.org/1999/xlink" width="500" zoomAndPan="magnify" viewBox="0 0 375 374.999991" height="500" preserveAspectRatio="xMidYMid meet" version="1.0"><defs><clipPath id="c178bd1509"><path d="M 10.035156 79.46875 L 171 79.46875 L 171 295.46875 L 10.035156 295.46875 Z M 10.035156 79.46875 " clip-rule="nonzero"/></clipPath><clipPath id="6d162d0623"><path d="M 96 79.46875 L 364.785156 79.46875 L 364.785156 295.46875 L 96 295.46875 Z M 96 79.46875 " clip-rule="nonzero"/></clipPath></defs><g clip-path="url(#c178bd1509)"><path fill="#253439" d="M 132.054688 183.480469 L 170.8125 183.480469 L 132.046875 79.546875 L 90.542969 79.546875 L 52.714844 180.976562 L 10.023438 295.445312 L 48.78125 295.445312 L 91.472656 180.976562 L 111.296875 127.824219 L 132.054688 183.480469 " fill-opacity="1" fill-rule="nonzero"/></g><g clip-path="url(#6d162d0623)"><path fill="#f14902" d="M 257.019531 79.546875 L 155.511719 79.546875 L 213.582031 235.246094 L 252.335938 235.246094 L 207.808594 115.859375 L 257.019531 115.859375 C 296.582031 115.859375 328.65625 147.933594 328.65625 187.496094 C 328.65625 227.058594 296.582031 259.132812 257.019531 259.132812 L 199.027344 259.132812 L 188.484375 230.859375 L 188.476562 230.859375 L 179.726562 207.382812 L 108.675781 207.382812 L 96.523438 243.695312 L 154.511719 243.695312 L 173.8125 295.445312 L 258.792969 295.445312 L 258.785156 295.425781 C 317.589844 294.480469 364.96875 246.527344 364.96875 187.496094 C 364.96875 127.875 316.640625 79.546875 257.019531 79.546875 " fill-opacity="1" fill-rule="nonzero"/></g></svg>